# xmcd
#
# Track frame offsets: 
#        150
#        24456
#        42279
#        61011
#        84172
#        102045
#        125140
#        145449
#        165403
#        187376
#
# Disc length: 2775 seconds
#
# Revision: 0
# Processed by: cddbd v1.5.2PL0 Copyright (c) Steve Scherf et al.
# Submitted via: ExactAudioCopyFreeDBPlugin 1.0
#
DISCID=820ad50a
DTITLE=Alvin Jett And The Phat Noiz Blues Band  - Wet My Beak
DYEAR=2004
DGENRE=Blues
TTITLE0=What Must A Player Do
TTITLE1=Bluesman
TTITLE2=Coming My Way
TTITLE3=Your Blues Ain't Like Mine
TTITLE4=Wet My Beak
TTITLE5=I Got My Pride
TTITLE6=East Side Woman
TTITLE7=China Doll
TTITLE8=How Long
TTITLE9=Phat noiZ
EXTD=
EXTT0=
EXTT1=
EXTT2=
EXTT3=
EXTT4=
EXTT5=
EXTT6=
EXTT7=
EXTT8=
EXTT9=
PLAYORDER=
